<svg width="693" height="388" xmlns="http://www.w3.org/2000/svg" xmlns:xlink="http://www.w3.org/1999/xlink" overflow="hidden"><defs><clipPath id="clip0"><rect x="-32" y="17" width="693" height="388"/></clipPath><linearGradient x1="459.224" y1="113.246" x2="459.224" y2="254.046" gradientUnits="userSpaceOnUse" spreadMethod="reflect" id="fill1"><stop offset="0" stop-color="#E59C9E"/><stop offset="0.0117647" stop-color="#E49C9F"/><stop offset="0.0235294" stop-color="#E49CA0"/><stop offset="0.0352941" stop-color="#E49CA2"/><stop offset="0.0470588" stop-color="#E49DA3"/><stop offset="0.0588235" stop-color="#E49DA4"/><stop offset="0.0705882" stop-color="#E49DA5"/><stop offset="0.0823529" stop-color="#E49EA7"/><stop offset="0.0941176" stop-color="#E39EA8"/><stop offset="0.105882" stop-color="#E39EA9"/><stop offset="0.117647" stop-color="#E39EAA"/><stop offset="0.129412" stop-color="#E39FAC"/><stop offset="0.141176" stop-color="#E29FAD"/><stop offset="0.152941" stop-color="#E29FAE"/><stop offset="0.164706" stop-color="#E2A0AF"/><stop offset="0.176471" stop-color="#E1A0B0"/><stop offset="0.188235" stop-color="#E1A0B2"/><stop offset="0.2" stop-color="#E0A0B3"/><stop offset="0.211765" stop-color="#E0A1B4"/><stop offset="0.223529" stop-color="#DFA1B5"/><stop offset="0.235294" stop-color="#DFA1B6"/><stop offset="0.247059" stop-color="#DEA1B7"/><stop offset="0.258824" stop-color="#DEA2B8"/><stop offset="0.270588" stop-color="#DDA2B9"/><stop offset="0.282353" stop-color="#DCA2BA"/><stop offset="0.294118" stop-color="#DCA2BB"/><stop offset="0.305882" stop-color="#DBA2BC"/><stop offset="0.317647" stop-color="#DAA3BD"/><stop offset="0.329412" stop-color="#DAA3BE"/><stop offset="0.341176" stop-color="#D9A3BF"/><stop offset="0.352941" stop-color="#D8A3C0"/><stop offset="0.364706" stop-color="#D8A4C1"/><stop offset="0.376471" stop-color="#D7A4C2"/><stop offset="0.388235" stop-color="#D6A4C3"/><stop offset="0.4" stop-color="#D5A4C4"/><stop offset="0.411765" stop-color="#D4A4C5"/><stop offset="0.423529" stop-color="#D3A5C5"/><stop offset="0.435294" stop-color="#D2A5C6"/><stop offset="0.447059" stop-color="#D1A5C7"/><stop offset="0.458824" stop-color="#D1A5C8"/><stop offset="0.470588" stop-color="#D0A5C9"/><stop offset="0.482353" stop-color="#CFA5C9"/><stop offset="0.494118" stop-color="#CEA6CA"/><stop offset="0.505882" stop-color="#CDA6CB"/><stop offset="0.517647" stop-color="#CBA6CC"/><stop offset="0.529412" stop-color="#CAA6CC"/><stop offset="0.541176" stop-color="#C9A6CD"/><stop offset="0.552941" stop-color="#C8A6CE"/><stop offset="0.564706" stop-color="#C7A7CE"/><stop offset="0.576471" stop-color="#C6A7CF"/><stop offset="0.588235" stop-color="#C5A7D0"/><stop offset="0.6" stop-color="#C3A7D0"/><stop offset="0.611765" stop-color="#C2A7D1"/><stop offset="0.623529" stop-color="#C1A7D2"/><stop offset="0.635294" stop-color="#C0A7D2"/><stop offset="0.647059" stop-color="#BEA8D3"/><stop offset="0.658824" stop-color="#BDA8D3"/><stop offset="0.670588" stop-color="#BCA8D4"/><stop offset="0.682353" stop-color="#BAA8D4"/><stop offset="0.694118" stop-color="#B9A8D5"/><stop offset="0.705882" stop-color="#B8A8D5"/><stop offset="0.717647" stop-color="#B6A8D6"/><stop offset="0.729412" stop-color="#B5A8D6"/><stop offset="0.741176" stop-color="#B3A8D7"/><stop offset="0.752941" stop-color="#B2A8D7"/><stop offset="0.764706" stop-color="#B0A9D7"/><stop offset="0.776471" stop-color="#AFA9D8"/><stop offset="0.788235" stop-color="#ADA9D8"/><stop offset="0.8" stop-color="#ACA9D8"/><stop offset="0.811765" stop-color="#AAA9D9"/><stop offset="0.823529" stop-color="#A9A9D9"/><stop offset="0.835294" stop-color="#A7A9D9"/><stop offset="0.847059" stop-color="#A6A9DA"/><stop offset="0.858824" stop-color="#A4A9DA"/><stop offset="0.870588" stop-color="#A2A9DA"/><stop offset="0.882353" stop-color="#A0A9DA"/><stop offset="0.894118" stop-color="#9FA9DB"/><stop offset="0.905882" stop-color="#9DA9DB"/><stop offset="0.917647" stop-color="#9BA9DB"/><stop offset="0.929412" stop-color="#9AA9DB"/><stop offset="0.941176" stop-color="#98A9DB"/><stop offset="0.952941" stop-color="#96A9DB"/><stop offset="0.964706" stop-color="#94A9DB"/><stop offset="0.976471" stop-color="#92A9DB"/><stop offset="0.988235" stop-color="#90A9DB"/><stop offset="1" stop-color="#8FAADC"/></linearGradient></defs><g clip-path="url(#clip0)" transform="translate(32 -17)"><path d="M601.855 202.367C600.179 202.367 598.722 203.052 597.484 204.423 596.246 205.794 595.628 207.432 595.628 209.336 595.628 211.164 596.065 212.64 596.942 213.764 597.817 214.887 598.979 215.449 600.426 215.449 603.473 215.449 604.997 212.878 604.997 207.737 604.997 205.642 604.778 204.233 604.34 203.509 603.902 202.785 603.073 202.405 601.855 202.367ZM453.854 182.486C452.178 182.486 450.836 183.105 449.826 184.342 448.817 185.58 448.313 187.227 448.313 189.284 448.313 191.569 448.741 194.683 449.598 198.625 450.455 202.566 451.474 206.061 452.654 209.108 453.835 212.231 455.758 213.792 458.424 213.792 461.814 213.792 463.509 211.64 463.509 207.337 463.509 204.138 463.08 200.5 462.223 196.425 461.367 192.35 460.329 189.036 459.11 186.485 457.853 183.895 456.101 182.562 453.854 182.486ZM322.081 177.687C320.71 177.687 319.567 178.963 318.653 181.514 318.501 181.857 317.948 183.209 316.996 185.571 315.397 189.455 314.597 191.779 314.597 192.54 314.597 193.492 315.473 193.969 317.225 193.969L328.422 193.969C330.479 193.969 331.507 193.512 331.507 192.597 331.507 191.341 330.079 188.256 327.222 183.343 325.927 181.096 324.937 179.591 324.252 178.829 323.566 178.068 322.842 177.687 322.081 177.687ZM605.682 169.289C612.309 169.289 617.927 170.965 622.535 174.316 624.973 176.106 626.677 178.153 627.648 180.458 628.62 182.762 629.105 185.932 629.105 189.97L628.991 198.482C628.991 204.385 629.41 208.213 630.248 209.965 630.667 210.803 631.066 211.336 631.447 211.564 631.828 211.793 632.628 212.002 633.847 212.193 635.065 212.383 635.675 213.183 635.675 214.592 635.675 216.42 634.942 218.325 633.475 220.305 632.009 222.285 630.114 223.942 627.791 225.275 624.935 226.951 621.945 227.789 618.822 227.789 614.823 227.789 611.662 226.418 609.338 223.676 608.539 222.685 607.796 222.19 607.11 222.19 606.349 222.19 605.339 222.666 604.083 223.618 600.274 226.399 595.951 227.789 591.114 227.789 586.125 227.789 582.088 226.722 579.003 224.59 576.984 223.18 575.385 221.343 574.204 219.077 573.023 216.811 572.433 214.44 572.433 211.964 572.433 208.003 574.033 204.499 577.232 201.452 582.221 196.654 589.686 194.235 599.627 194.197 601.836 194.197 603.226 193.978 603.797 193.54 604.368 193.102 604.654 192.083 604.654 190.484 604.654 186.447 604.235 183.523 603.397 181.714 602.559 179.905 601.188 179.001 599.284 179.001 598.141 179.001 597.122 179.344 596.227 180.029 595.332 180.715 594.218 181.971 592.885 183.8 589.496 188.637 585.954 191.055 582.259 191.055 580.393 191.055 578.87 190.503 577.689 189.398 576.508 188.294 575.918 186.846 575.918 185.056 575.918 183.228 576.651 181.4 578.117 179.572 579.584 177.744 581.574 176.144 584.087 174.773 590.981 171.117 598.179 169.289 605.682 169.289ZM458.424 169.289C465.394 169.289 471.507 171.098 476.763 174.716 480.533 177.306 483.561 180.677 485.846 184.828 488.208 189.17 489.388 193.702 489.388 198.425 489.388 206.689 485.599 213.716 478.02 219.505 470.783 225.028 462.5 227.789 453.169 227.789 444.066 227.789 436.696 225.199 431.06 220.019 425.575 214.992 422.833 208.441 422.833 200.367 422.833 191.379 426.185 184.028 432.888 178.315 439.896 172.298 448.408 169.289 458.424 169.289ZM522.626 148.208C524.835 148.208 525.901 149.16 525.825 151.065L525.083 175.002C525.006 177.858 525.882 179.286 527.711 179.286 528.625 179.286 529.52 178.658 530.396 177.401 534.09 172.031 539.022 169.346 545.192 169.346 551.248 169.346 556.065 171.193 559.646 174.888 561.245 176.525 562.378 178.468 563.045 180.715 563.711 182.962 564.083 186.18 564.159 190.369L564.673 210.993C564.711 212.783 564.949 214.097 565.387 214.935 565.825 215.773 566.844 216.82 568.443 218.077 569.548 218.953 570.1 220 570.1 221.219 570.1 225.332 563.892 227.389 551.476 227.389 540.431 227.389 534.909 225.466 534.909 221.619 534.909 220.971 535.004 220.476 535.194 220.134 535.385 219.791 536.051 218.877 537.194 217.391 538.794 215.297 539.593 210.06 539.593 201.681 539.593 196.616 539.117 192.921 538.165 190.598 536.908 187.437 534.661 185.856 531.424 185.856 529.101 185.856 527.387 186.694 526.282 188.37 525.483 189.589 525.083 191.874 525.083 195.225L525.083 206.251C525.349 211.126 525.578 213.888 525.768 214.535 525.959 215.182 526.835 216.382 528.396 218.134 529.12 218.934 529.482 219.867 529.482 220.933 529.482 225.237 523.883 227.389 512.686 227.389 499.584 227.389 493.033 225.161 493.033 220.705 493.033 219.677 493.243 218.886 493.662 218.334 494.081 217.782 495.109 216.934 496.747 215.792 498.194 214.763 499.194 211.993 499.746 207.48 500.298 202.966 500.574 195.492 500.574 185.056 500.574 176.868 500.346 171.193 499.889 168.032 499.736 166.851 499.46 165.985 499.06 165.433 498.66 164.88 497.908 164.319 496.804 163.747 494.442 162.529 493.262 161.119 493.262 159.52 493.262 157.616 494.157 156.073 495.947 154.892 497.737 153.712 501.165 152.436 506.23 151.065 513.086 149.16 518.551 148.208 522.626 148.208ZM409.597 148.208C412.606 148.208 414.11 150.075 414.11 153.807 414.11 155.026 413.92 157.825 413.539 162.205 413.044 169.022 412.758 175.268 412.682 180.943L412.682 199.282C412.682 207.394 412.806 212.117 413.054 213.45 413.301 214.783 414.244 215.811 415.881 216.534 417.291 217.144 418.233 217.715 418.709 218.248 419.185 218.782 419.423 219.543 419.423 220.534 419.423 221.79 418.976 222.933 418.081 223.961 417.186 224.99 415.996 225.713 414.51 226.132 411.768 226.97 407.141 227.389 400.628 227.389 393.277 227.389 388.117 226.837 385.146 225.732 383.775 225.237 382.651 224.466 381.775 223.419 380.899 222.371 380.462 221.276 380.462 220.134 380.462 219.22 380.7 218.515 381.176 218.02 381.652 217.525 382.69 216.934 384.289 216.249 385.775 215.601 386.689 213.83 387.031 210.936 387.641 205.985 387.945 198.939 387.945 189.798 387.945 180.505 387.679 174.526 387.146 171.86 386.612 169.194 385.279 167.213 383.147 165.918 381.547 165.004 380.452 164.138 379.862 163.319 379.271 162.5 378.976 161.5 378.976 160.32 378.976 158.453 379.871 156.825 381.661 155.435 383.451 154.045 386.308 152.76 390.231 151.579 392.858 150.779 396.267 150.017 400.457 149.294 404.646 148.57 407.693 148.208 409.597 148.208ZM324.709 146.323C328.555 146.323 332.231 147.827 335.734 150.836 340.609 154.95 347.693 166.928 356.986 186.77L367.784 209.908C368.812 212.04 369.669 213.44 370.355 214.107 371.04 214.773 372.087 215.221 373.497 215.449 376.239 215.868 377.61 217.258 377.61 219.619 377.61 222.4 375.934 224.399 372.583 225.618 369.231 226.837 363.747 227.446 356.129 227.446 347.522 227.446 341.143 227.084 336.991 226.361 335.087 226.018 333.573 225.323 332.45 224.275 331.326 223.228 330.764 221.962 330.764 220.476 330.764 219.334 331.059 218.448 331.65 217.82 332.24 217.191 333.335 216.611 334.935 216.077 336.725 215.468 337.62 214.44 337.62 212.992 337.62 210.441 336.077 208.936 332.992 208.479 329.679 208.022 325.013 207.794 318.996 207.794 313.93 207.794 310.902 208.098 309.912 208.708 309.303 209.089 308.77 209.774 308.313 210.764 307.856 211.755 307.627 212.707 307.627 213.621 307.627 214.459 307.789 215.002 308.113 215.249 308.436 215.497 309.493 215.906 311.283 216.477 313.607 217.163 314.768 218.534 314.768 220.591 314.768 225.123 309.341 227.389 298.486 227.389 292.316 227.389 287.784 226.97 284.89 226.132 282.224 225.332 280.891 223.58 280.891 220.876 280.891 219.696 281.186 218.782 281.776 218.134 282.367 217.487 283.423 216.896 284.947 216.363 287.422 215.487 289.298 214.259 290.574 212.678 291.85 211.098 293.669 207.718 296.03 202.538L304.085 184.885C307.056 178.41 309.046 173.564 310.055 170.346 311.064 167.128 311.588 163.976 311.626 160.891 311.664 157.616 311.864 155.34 312.226 154.064 312.588 152.788 313.397 151.541 314.654 150.322 317.282 147.656 320.633 146.323 324.709 146.323Z" fill="url(#fill1)" fill-rule="evenodd"/><text fill="#000000" fill-opacity="0" font-family="Arial,Arial_MSFontService,sans-serif" font-size="81.4658" x="280.891" y="217.606">Aloha</text><path d="M92.5001 190C92.5001 158.796 116.677 133.5 146.5 133.5 176.323 133.5 200.5 158.796 200.5 190 200.5 221.204 176.323 246.5 146.5 246.5 116.677 246.5 92.5001 221.204 92.5001 190Z" stroke="#F29FC2" stroke-width="9.33333" stroke-miterlimit="8" fill="#FFFFFF" fill-rule="evenodd"/><text fill="#F29FC2" font-family="Comic Sans MS,Comic Sans MS_MSFontService,sans-serif" font-weight="400" font-size="184" transform="translate(79.6284 248)">A</text><path d="M110.315 184.381 115.451 187.069 104.79 207.437 99.6542 204.748Z" fill="#FFFFFF" fill-rule="evenodd"/><path d="M142.802 186.456 168.207 181.477 166.289 171.69 189.698 187.427 173.961 210.835 172.043 201.049 146.638 206.028Z" stroke="#FFFFFF" stroke-width="4" stroke-miterlimit="8" fill="#F29FC2" fill-rule="evenodd"/><path d="M134.727 187.496 170.343 180.378 174.257 199.965 138.641 207.082Z" fill="#F29FC2" fill-rule="evenodd"/></g></svg>
